<svg width="96" height="109" viewBox="0 0 96 109" fill="none" xmlns="http://www.w3.org/2000/svg">
    <path d="M36.4913 58.12C34.9673 58.12 33.7073 56.98 33.7073 55.216C33.7073 53.416 34.9673 52.12 36.8153 52.12C38.0513 52.12 38.9273 52.708 38.9273 53.296C38.9273 53.608 38.6993 53.824 38.3993 53.824C38.1113 53.824 37.9433 53.632 37.7873 53.296C37.4393 52.528 37.0913 52.312 36.5873 52.312C35.6393 52.312 34.8713 53.068 34.8713 54.544C34.8713 56.272 35.8913 57.34 37.1033 57.34C37.9433 57.34 38.6873 56.86 39.1793 56.056L39.2633 56.104C38.6993 57.496 37.5713 58.12 36.4913 58.12ZM44.0287 58.12C42.3967 58.12 41.0887 56.956 41.0887 55.192C41.0887 53.356 42.4207 52.12 44.1247 52.12C45.7567 52.12 47.0647 53.284 47.0647 55.048C47.0647 56.884 45.7327 58.12 44.0287 58.12ZM42.3247 54.808C42.3247 56.236 42.9727 57.928 44.1967 57.928C45.1447 57.928 45.8287 57.016 45.8287 55.432C45.8287 54.004 45.1927 52.312 43.9567 52.312C43.0207 52.312 42.3247 53.224 42.3247 54.808ZM48.9212 61.144C49.5332 61.096 49.7012 61.024 49.7012 60.532V54.016C49.7012 53.296 49.4852 52.996 49.0172 52.876V52.804C49.5812 52.708 50.3012 52.408 50.8292 52.12H50.9012L50.8052 53.056C51.3092 52.564 51.9692 52.168 52.7252 52.168C54.0572 52.168 55.0772 53.296 55.0772 54.94C55.0772 56.848 53.7332 58.072 52.0652 58.072C51.6452 58.072 51.2252 58 50.8292 57.856V60.532C50.8292 61.024 51.0092 61.096 51.8372 61.144V61.24H48.9212V61.144ZM50.8292 56.644C50.8292 57.256 51.3452 57.88 52.1732 57.88C53.1572 57.88 53.8772 56.896 53.8772 55.432C53.8772 53.8 53.1332 52.816 52.0172 52.816C51.6332 52.816 51.2372 52.936 50.8292 53.2V56.644ZM57.7699 61.24C57.2419 61.24 57.0019 60.952 57.0019 60.628C57.0019 60.328 57.2179 60.1 57.5539 60.1C57.9139 60.1 58.1299 60.436 58.3219 60.436C58.5859 60.436 58.7899 60.196 59.0779 59.452L59.5579 58.18L57.5659 53.428C57.2179 52.636 57.0019 52.408 56.5219 52.336V52.24H59.2099V52.336C58.4299 52.396 58.4419 52.636 58.6219 53.068L60.1219 56.716L61.3339 53.512C61.5619 52.9 61.4779 52.408 60.6019 52.336V52.24H62.6779V52.336C62.2459 52.408 61.8499 52.756 61.5499 53.548L59.2819 59.512C58.8859 60.544 58.4779 61.24 57.7699 61.24Z" fill="#FF0000"/>
    <path d="M80.846 47.0796C80.9136 54.5842 76.5729 63.2649 69.3636 71.2704C62.1596 79.2702 52.1449 86.5275 41.0281 91.113C29.9113 95.6985 19.8405 96.7261 12.5462 94.7067C5.24657 92.6859 0.782186 87.6371 0.714568 80.1325C0.646951 72.6279 4.98763 63.9472 12.1969 55.9417C19.4009 47.9419 29.4156 40.6846 40.5324 36.0991C51.6492 31.5136 61.72 30.486 69.0144 32.5054C76.314 34.5262 80.7784 39.575 80.846 47.0796Z" stroke="#FF0000"/>
    <path d="M95.1526 28.1975C95.2202 35.7021 90.8796 44.3828 83.6703 52.3884C76.4662 60.3881 66.4516 67.6454 55.3348 72.2309C44.218 76.8164 34.1471 77.844 26.8528 75.8246C19.5532 73.8038 15.0888 68.755 15.0212 61.2504C14.9536 53.7458 19.2943 45.0651 26.5036 37.0596C33.7076 29.0599 43.7223 21.8026 54.8391 17.2171C65.9559 12.6316 76.0267 11.6039 83.321 13.6233C90.6206 15.6442 95.085 20.6929 95.1526 28.1975Z" stroke="#FF0000"/>
</svg>
