<svg width="118" height="58" viewBox="0 0 118 58" fill="none" xmlns="http://www.w3.org/2000/svg">
<path d="M60.8886 57.24C59.4786 57.24 59.1486 56.01 59.1486 54.69C57.5886 56.37 56.2086 57.24 54.6786 57.24C52.8786 57.24 51.5886 56.04 51.5886 54.3C51.5886 52.92 52.3686 51.93 55.6086 50.97L59.1486 49.92V46.62C59.1486 44.52 58.2186 43.44 56.6286 43.44C55.2786 43.44 53.2986 44.55 53.2986 45.18C53.2986 45.42 53.5386 46.02 53.5386 46.44C53.5386 47.01 53.1786 47.31 52.6986 47.31C52.2786 47.31 51.8886 47.07 51.8886 46.59C51.8886 46.02 52.4286 45.15 53.2986 44.37C54.4686 43.29 56.0586 42.42 57.4686 42.42C59.4486 42.42 60.7386 43.62 60.7386 46.29V54.69C60.7386 55.59 61.0686 56.25 61.8186 56.25C62.4786 56.25 63.0186 55.68 63.4986 54.93L63.6786 55.05C63.1686 56.07 62.2986 57.24 60.8886 57.24ZM53.1786 53.88C53.1786 55.32 54.1386 56.19 55.5186 56.19C56.6886 56.19 57.8586 55.47 59.1486 54.27V50.31L55.9986 51.3C54.0186 51.93 53.1786 52.62 53.1786 53.88Z" fill="#04FF00"/>
<path d="M41.8497 57.3C38.2497 57.3 35.3397 54.51 35.3397 49.83C35.3397 45.45 38.2197 42.3 42.0897 42.3C45.4197 42.3 47.4597 44.31 47.5197 47.73H36.9897C36.9297 48.15 36.8997 48.6 36.8997 49.08C36.8997 53.43 39.4197 56.13 42.5697 56.13C44.7597 56.13 46.6797 54.72 47.9397 52.29L48.1197 52.41C46.8597 55.71 44.3697 57.3 41.8497 57.3ZM37.0497 47.25H45.1197C45.6297 47.25 45.7797 47.1 45.7797 46.53C45.7797 44.79 44.5197 42.75 41.9397 42.75C39.4797 42.75 37.6197 44.37 37.0497 47.25Z" fill="#04FF00"/>
<path d="M23.5018 56.79C25.1518 56.67 25.5718 56.58 25.5718 55.44L25.5718 45.87C25.5718 44.07 25.0318 43.68 23.7418 43.53V43.35C24.9418 43.23 26.2618 42.78 27.1918 42.3H27.3418L27.1018 45.75C27.5218 45.09 28.0018 44.49 28.5718 43.92C29.5618 42.9 30.6118 42.3 31.6918 42.3C32.3818 42.3 32.7718 42.69 32.7718 43.26C32.7718 43.83 32.3218 44.25 31.7518 44.25C31.0618 44.25 30.7018 43.77 30.1018 43.77C29.1418 43.77 28.0918 44.79 27.1618 46.26L27.1618 55.44C27.1618 56.58 27.5818 56.67 29.8018 56.79V57H23.5018V56.79Z" fill="#04FF00"/>
<path d="M14.41 56.79C16.93 56.76 17.14 56.37 16.66 54.99L14.32 48.42H6.48998L4.47998 54.09C3.84998 55.8 4.20998 56.64 6.75998 56.79V57H0.72998L0.72998 56.79C2.19998 56.64 3.06998 56.01 3.84998 53.94L9.96998 36.66L9.54998 35.52C10.12 35.37 10.84 35.04 11.2 34.56H11.35C11.59 35.64 11.74 36.09 12.46 38.04L18.25 54.24C19.03 56.31 19.3 56.64 21.25 56.79V57H14.41V56.79ZM6.66998 47.88H14.14L10.42 37.32L6.66998 47.88Z" fill="#04FF00"/>
<path d="M110.856 23.3C107.256 23.3 104.346 20.51 104.346 15.83C104.346 11.45 107.226 8.29999 111.096 8.29999C114.426 8.29999 116.466 10.31 116.526 13.73L105.996 13.73C105.936 14.15 105.906 14.6 105.906 15.08C105.906 19.43 108.426 22.13 111.576 22.13C113.766 22.13 115.686 20.72 116.946 18.29L117.126 18.41C115.866 21.71 113.376 23.3 110.856 23.3ZM106.056 13.25L114.126 13.25C114.636 13.25 114.786 13.1 114.786 12.53C114.786 10.79 113.526 8.74999 110.946 8.74999C108.486 8.74999 106.626 10.37 106.056 13.25Z" fill="#04FF00"/>
<path d="M89.5909 10.91C88.9909 9.44001 88.5709 8.96001 87.2809 8.81001V8.60001L92.9209 8.60001V8.81001C90.7609 8.84001 90.7309 9.38001 91.1509 10.46L95.2609 20.96L99.1309 11.15C99.6709 9.83001 99.4309 8.96001 97.2709 8.81001V8.60001H102.191V8.81001C100.991 8.96001 100.271 9.74001 99.6709 11.21L94.8409 23.3H94.5409L89.5909 10.91Z" fill="#04FF00"/>
<path d="M79.2443 22.79C81.0143 22.67 81.4343 22.58 81.4343 21.44V11.87C81.4343 10.07 80.8943 9.67999 79.4843 9.52999V9.34999C80.8043 9.22999 82.1243 8.77999 83.0543 8.29999H83.2043C83.0243 9.49999 83.0243 10.61 83.0243 11.87V21.44C83.0243 22.58 83.4443 22.67 85.1843 22.79V23H79.2443V22.79ZM80.7143 2.77999C80.7143 2.11999 81.2543 1.57999 81.9443 1.57999C82.6043 1.57999 83.1443 2.11999 83.1443 2.77999C83.1443 3.46999 82.6043 3.97999 81.9443 3.97999C81.2543 3.97999 80.7143 3.46999 80.7143 2.77999Z" fill="#04FF00"/>
<path d="M72.7464 23.3C71.0364 23.3 69.7764 22.4 69.7764 20.18V9.52998H67.9764V9.25998C69.8664 8.71999 70.5264 7.18999 71.0964 5.35999H71.3664V8.59999L76.3164 8.59999L76.1364 9.52998H71.3664V19.76C71.3664 21.68 72.3264 22.34 73.7364 22.34C74.7564 22.34 75.6564 21.98 76.4664 21.47L76.6164 21.62C75.5064 22.67 74.0964 23.3 72.7464 23.3Z" fill="#04FF00"/>
<path d="M62.705 23.24C61.295 23.24 60.965 22.01 60.965 20.69C59.405 22.37 58.025 23.24 56.495 23.24C54.695 23.24 53.405 22.04 53.405 20.3C53.405 18.92 54.185 17.93 57.425 16.97L60.965 15.92V12.62C60.965 10.52 60.035 9.44001 58.445 9.44001C57.095 9.44001 55.115 10.55 55.115 11.18C55.115 11.42 55.355 12.02 55.355 12.44C55.355 13.01 54.995 13.31 54.515 13.31C54.095 13.31 53.705 13.07 53.705 12.59C53.705 12.02 54.245 11.15 55.115 10.37C56.285 9.29001 57.875 8.42001 59.285 8.42001C61.265 8.42001 62.555 9.62001 62.555 12.29V20.69C62.555 21.59 62.885 22.25 63.635 22.25C64.295 22.25 64.835 21.68 65.315 20.93L65.495 21.05C64.985 22.07 64.115 23.24 62.705 23.24ZM54.995 19.88C54.995 21.32 55.955 22.19 57.335 22.19C58.505 22.19 59.675 21.47 60.965 20.27V16.31L57.815 17.3C55.835 17.93 54.995 18.62 54.995 19.88Z" fill="#04FF00"/>
<path d="M43.6661 23.3C40.0661 23.3 37.1561 20.51 37.1561 15.83C37.1561 11.45 40.0361 8.29999 43.9061 8.29999C47.2361 8.29999 49.2761 10.31 49.3361 13.73L38.8061 13.73C38.7461 14.15 38.7161 14.6 38.7161 15.08C38.7161 19.43 41.2361 22.13 44.3861 22.13C46.5761 22.13 48.4961 20.72 49.7561 18.29L49.9361 18.41C48.6761 21.71 46.1861 23.3 43.6661 23.3ZM38.8661 13.25L46.9361 13.25C47.4461 13.25 47.5961 13.1 47.5961 12.53C47.5961 10.79 46.3361 8.74999 43.7561 8.74999C41.2961 8.74999 39.4361 10.37 38.8661 13.25Z" fill="#04FF00"/>
<path d="M25.3182 22.79C26.9682 22.67 27.3882 22.58 27.3882 21.44L27.3882 11.87C27.3882 10.07 26.8482 9.67999 25.5582 9.52999V9.34999C26.7582 9.22999 28.0782 8.77999 29.0082 8.29999H29.1582L28.9182 11.75C29.3382 11.09 29.8182 10.49 30.3882 9.91999C31.3782 8.89999 32.4282 8.29999 33.5082 8.29999C34.1982 8.29999 34.5882 8.68999 34.5882 9.25999C34.5882 9.82999 34.1382 10.25 33.5682 10.25C32.8782 10.25 32.5182 9.76999 31.9182 9.76999C30.9582 9.76999 29.9082 10.79 28.9782 12.26L28.9782 21.44C28.9782 22.58 29.3982 22.67 31.6182 22.79V23H25.3182V22.79Z" fill="#04FF00"/>
<path d="M12.43 23.3C6.78999 23.3 2.10999 18.95 2.10999 12.41C2.10999 5.47999 7.32999 0.859985 13.09 0.859985C17.47 0.859985 19.39 2.59999 20.02 2.59999C20.41 2.59999 20.62 2.32999 20.74 1.15999H20.92L21.67 7.42999H21.46C19.93 2.89999 16.51 1.36999 13.09 1.36999C8.16999 1.36999 4.11999 5.32999 4.11999 11.54C4.11999 18.32 8.19999 22.34 13.42 22.34C17.23 22.34 20.17 19.94 21.97 16.43L22.24 16.55C20.5 20.42 17.14 23.3 12.43 23.3Z" fill="#04FF00"/>
</svg>
