<svg width="237" height="26" viewBox="0 0 237 26" fill="none" xmlns="http://www.w3.org/2000/svg">
    <path d="M1.58412 19.24C1.15212 19.24 0.960124 18.88 0.960124 18.376C0.960124 17.944 1.20012 17.032 1.39212 16.408L3.28812 9.856C3.48012 9.16 3.57612 8.584 3.31212 8.584C3.02412 8.584 2.44812 9.208 0.936124 11.104L0.816124 11.008C2.59212 8.272 3.48012 7.24 4.27212 7.24C4.70412 7.24 4.89612 7.6 4.89612 8.104C4.89612 8.536 4.65612 9.448 4.46412 10.072L2.56812 16.624C2.37612 17.32 2.28012 17.896 2.54412 17.896C2.83212 17.896 3.40812 17.272 4.89612 15.376L5.04012 15.472C3.26412 18.208 2.37612 19.24 1.58412 19.24ZM4.20012 2.872C4.20012 2.32 4.63212 1.864 5.18412 1.864C5.71212 1.864 6.07212 2.248 6.07212 2.776C6.07212 3.328 5.64012 3.784 5.08812 3.784C4.56012 3.784 4.20012 3.4 4.20012 2.872ZM16.1696 18.832C17.3456 18.736 17.6816 18.64 17.6816 17.68L17.6816 11.392C17.6816 9.304 16.6736 8.368 15.0896 8.368C14.0096 8.368 13.0736 8.944 12.0896 9.688V17.68C12.0896 18.64 12.4256 18.736 13.6016 18.832V19L8.82556 19V18.832C10.0976 18.736 10.4336 18.64 10.4336 17.68V10.456C10.4336 9.016 10.0016 8.608 9.01756 8.44V8.296C10.0496 8.152 11.2496 7.696 12.1136 7.24H12.2336L12.0416 9.448C13.2176 8.344 14.4656 7.336 16.2416 7.336C18.1616 7.336 19.3376 8.584 19.3376 11.08L19.3376 17.68C19.3376 18.64 19.6736 18.736 20.9456 18.832V19H16.1696V18.832ZM24.4801 18.832C25.7521 18.736 26.0881 18.64 26.0881 17.68L26.0881 8.44H24.6721V8.152L26.0881 7.48V7.096C26.0881 3.472 28.4641 0.568 31.2961 0.568C32.5201 0.568 33.3601 1.144 33.3601 1.84C33.3601 2.32 33.0001 2.704 32.4721 2.704C32.0401 2.704 31.8001 2.416 31.5361 2.128C31.0801 1.624 30.7201 1.312 30.0721 1.312C28.7281 1.312 27.7441 2.488 27.7441 5.8V7.48L30.7921 7.48L30.6001 8.44L27.7441 8.44L27.7441 17.68C27.7441 18.64 28.1041 18.736 29.8321 18.832V19H24.4801V18.832ZM39.7117 19.24C36.5677 19.24 34.0237 16.888 34.0237 13.384C34.0237 9.688 36.5917 7.24 39.9037 7.24C43.0717 7.24 45.6157 9.592 45.6157 13.096C45.6157 16.792 43.0237 19.24 39.7117 19.24ZM35.8237 12.736C35.8237 15.976 37.4797 18.88 40.0477 18.88C42.1837 18.88 43.8157 16.96 43.8157 13.744C43.8157 10.504 42.1357 7.6 39.5917 7.6C37.4557 7.6 35.8237 9.52 35.8237 12.736ZM59.1258 22.984C53.2938 22.984 50.0538 19 50.0538 13.6C50.0538 6.664 55.3338 2.392 60.9018 2.392C65.7018 2.392 69.3018 5.44 69.3018 10.216C69.3018 14.272 66.6378 17.608 63.9738 17.608C62.2938 17.608 61.8138 16.384 61.8378 15.184C61.2378 16.672 59.9178 17.752 58.3098 17.752C56.5818 17.752 55.4298 16.432 55.4298 14.128C55.4298 10.84 57.6858 7.48 60.9498 7.48C62.1018 7.48 62.9178 7.936 63.4938 8.608C63.8298 8.2 64.2618 7.792 64.6218 7.48H64.8138C64.5738 8.176 64.1898 9.928 63.9978 11.032L63.5178 13.816C63.2298 15.352 62.9898 17.152 64.4298 17.152C66.2058 17.152 68.3898 14.416 68.3898 10.648C68.3898 5.824 65.0058 2.728 60.6378 2.728C55.6698 2.728 51.2538 6.568 51.2538 13.072C51.2538 18.496 54.3498 22.384 59.6538 22.384C62.7018 22.384 65.1738 21.064 67.2858 18.856L67.4538 19.024C65.5338 21.232 63.0138 22.984 59.1258 22.984ZM57.1338 13.864C57.1338 15.856 57.9258 16.888 59.1498 16.888C60.3738 16.888 61.5978 15.856 61.9818 13.768L62.5338 10.552C62.8458 8.824 62.1978 7.792 60.8298 7.792C58.4778 7.792 57.1338 11.248 57.1338 13.864ZM82.6096 19.096C81.9616 19.096 81.5056 18.688 80.8336 17.776L77.6656 13.48C77.5456 13.288 77.4016 13.168 77.2096 13.168C77.0416 13.168 76.9216 13.288 76.7296 13.48L76.2016 13.984V17.68C76.2016 18.64 76.5376 18.736 77.7136 18.832V19L72.9376 19V18.832C74.2096 18.736 74.5456 18.64 74.5456 17.68V4.408C74.5456 2.296 74.3296 1.864 73.1296 1.672V1.528C74.2096 1.384 75.3136 0.975999 76.2256 0.423999H76.3456C76.2016 1.384 76.2016 2.488 76.2016 4.408V13.552L80.1136 9.616C80.6416 9.088 80.8336 8.68 80.8336 8.368C80.8336 7.912 80.5216 7.648 79.7296 7.648V7.48L84.4576 7.48V7.648C83.2336 7.792 82.0576 8.224 80.4256 9.832L78.4336 11.8L82.3936 17.08C83.5216 18.568 84.0256 18.736 84.9376 18.832V19C84.1456 19.048 83.3056 19.096 82.6096 19.096ZM92.4485 19.144C90.5285 19.144 89.3525 17.896 89.3525 15.4V9.28C89.3525 8.152 88.9205 7.744 87.8645 7.648V7.48C88.7525 7.48 90.0485 7.384 91.0325 7.24L91.1765 7.24C91.0325 8.176 91.0325 9.304 91.0325 10.456V15.088C91.0325 17.176 92.0405 18.112 93.6005 18.112C94.6805 18.112 95.6165 17.464 96.6005 16.6V9.28C96.6005 8.152 96.1685 7.744 94.8245 7.648V7.48C96.0005 7.48 97.2965 7.384 98.2805 7.24H98.4245C98.2805 8.176 98.2805 9.304 98.2805 10.456V16.792C98.2805 18.112 98.4965 18.328 99.7685 18.328V18.52C98.6645 18.592 97.5605 18.856 96.6005 19.24H96.4565L96.6485 16.84C95.4725 18.064 94.2245 19.144 92.4485 19.144ZM108.634 19.144C105.922 19.144 103.762 16.936 103.762 13.528C103.762 9.712 106.378 7.336 109.594 7.336C110.65 7.336 111.634 7.552 112.522 8.008V4.408C112.522 2.296 112.306 1.864 111.13 1.672V1.528C112.186 1.384 113.29 0.975999 114.202 0.423999H114.346C114.202 1.384 114.202 2.488 114.202 4.408V16.792C114.202 18.112 114.418 18.328 115.69 18.328V18.52C114.586 18.592 113.482 18.856 112.522 19.24H112.378L112.57 17.368C111.586 18.328 110.218 19.144 108.634 19.144ZM105.514 12.784C105.514 16.096 107.098 18.16 109.642 18.16C110.53 18.16 111.514 17.848 112.522 17.08V10.36C112.522 8.968 111.322 7.696 109.45 7.696C107.29 7.696 105.514 9.568 105.514 12.784ZM127.092 19.192C125.82 19.192 125.604 18.16 125.58 17.176C124.332 18.52 123.228 19.192 122.004 19.192C120.564 19.192 119.532 18.232 119.532 16.84C119.532 15.736 120.156 14.944 122.748 14.176L125.58 13.336V10.816C125.58 9.328 124.932 8.368 123.588 8.368C122.604 8.368 121.044 9.136 121.044 9.64C121.044 9.88 121.332 10.384 121.332 10.792C121.332 11.296 120.996 11.56 120.54 11.56C120.156 11.56 119.796 11.344 119.796 10.912C119.796 10.384 120.276 9.64 121.044 8.968C122.1 8.008 123.348 7.336 124.5 7.336C126.132 7.336 127.236 8.344 127.236 10.432V17.08C127.236 17.776 127.5 18.256 128.076 18.256C128.604 18.256 129.012 17.824 129.372 17.296L129.516 17.392C129.108 18.208 128.34 19.192 127.092 19.192ZM121.188 16.384C121.188 17.488 121.908 18.16 122.964 18.16C123.828 18.16 124.668 17.656 125.58 16.792V13.672L123.252 14.416C121.812 14.848 121.188 15.4 121.188 16.384ZM142.294 19.096C141.646 19.096 141.19 18.688 140.518 17.776L137.35 13.48C137.23 13.288 137.086 13.168 136.894 13.168C136.726 13.168 136.606 13.288 136.414 13.48L135.886 13.984V17.68C135.886 18.64 136.222 18.736 137.398 18.832V19H132.622V18.832C133.894 18.736 134.23 18.64 134.23 17.68V4.408C134.23 2.296 134.014 1.864 132.814 1.672V1.528C133.894 1.384 134.998 0.975999 135.91 0.423999L136.03 0.423999C135.886 1.384 135.886 2.488 135.886 4.408V13.552L139.798 9.616C140.326 9.088 140.518 8.68 140.518 8.368C140.518 7.912 140.206 7.648 139.414 7.648V7.48L144.142 7.48V7.648C142.918 7.792 141.742 8.224 140.11 9.832L138.118 11.8L142.078 17.08C143.206 18.568 143.71 18.736 144.622 18.832V19C143.83 19.048 142.99 19.096 142.294 19.096ZM152.133 19.144C150.213 19.144 149.037 17.896 149.037 15.4V9.28C149.037 8.152 148.605 7.744 147.549 7.648V7.48C148.437 7.48 149.733 7.384 150.717 7.24H150.861C150.717 8.176 150.717 9.304 150.717 10.456V15.088C150.717 17.176 151.725 18.112 153.285 18.112C154.365 18.112 155.301 17.464 156.285 16.6V9.28C156.285 8.152 155.853 7.744 154.509 7.648V7.48C155.685 7.48 156.981 7.384 157.965 7.24H158.109C157.965 8.176 157.965 9.304 157.965 10.456V16.792C157.965 18.112 158.181 18.328 159.453 18.328V18.52C158.349 18.592 157.245 18.856 156.285 19.24H156.141L156.333 16.84C155.157 18.064 153.909 19.144 152.133 19.144ZM164.791 19.24C164.119 19.24 163.591 18.688 163.591 18.04C163.591 17.368 164.119 16.816 164.791 16.816C165.463 16.816 165.991 17.368 165.991 18.04C165.991 18.688 165.463 19.24 164.791 19.24ZM171.266 19.24C170.642 19.24 170.354 18.856 170.354 18.232C170.354 17.848 170.522 17.176 170.666 16.648L173.138 8.176H171.218L171.434 7.48H173.33L173.978 5.272C174.194 4.504 175.226 4.096 175.658 4.096C175.778 4.096 175.826 4.144 175.826 4.264C175.826 4.456 175.61 5.152 175.154 6.736L174.938 7.48H178.082L177.722 8.176H174.746L172.322 16.48C172.13 17.176 172.058 17.68 172.49 17.68C172.97 17.68 174.074 16.72 175.586 15.352L175.73 15.472C173.81 17.896 172.346 19.24 171.266 19.24ZM185.957 19.24C182.813 19.24 180.269 16.888 180.269 13.384C180.269 9.688 182.837 7.24 186.149 7.24C189.317 7.24 191.861 9.592 191.861 13.096C191.861 16.792 189.269 19.24 185.957 19.24ZM182.069 12.736C182.069 15.976 183.725 18.88 186.293 18.88C188.429 18.88 190.061 16.96 190.061 13.744C190.061 10.504 188.381 7.6 185.837 7.6C183.701 7.6 182.069 9.52 182.069 12.736ZM205.467 19.096C204.819 19.096 204.363 18.688 203.691 17.776L200.523 13.48C200.403 13.288 200.259 13.168 200.067 13.168C199.899 13.168 199.779 13.288 199.587 13.48L199.059 13.984V17.68C199.059 18.64 199.395 18.736 200.571 18.832V19H195.795V18.832C197.067 18.736 197.403 18.64 197.403 17.68V4.408C197.403 2.296 197.187 1.864 195.987 1.672V1.528C197.067 1.384 198.171 0.975999 199.083 0.423999H199.203C199.059 1.384 199.059 2.488 199.059 4.408V13.552L202.971 9.616C203.499 9.088 203.691 8.68 203.691 8.368C203.691 7.912 203.379 7.648 202.587 7.648V7.48L207.315 7.48V7.648C206.091 7.792 204.915 8.224 203.283 9.832L201.291 11.8L205.251 17.08C206.379 18.568 206.883 18.736 207.795 18.832V19C207.003 19.048 206.163 19.096 205.467 19.096ZM212.784 25.48C211.968 25.48 211.584 25.024 211.584 24.544C211.584 24.064 211.92 23.704 212.448 23.704C213 23.704 213.312 24.16 213.648 24.16C214.176 24.16 214.656 23.656 215.304 21.904L216.336 19.168L212.328 9.52C211.776 8.2 211.392 7.792 210.384 7.648V7.48L215.232 7.48V7.648C213.576 7.72 213.552 8.152 213.912 9.016L217.152 17.008L219.936 9.712C220.368 8.584 220.176 7.792 218.448 7.648V7.48H222.48V7.648C221.544 7.792 220.872 8.44 220.368 9.76L215.712 22.048C214.848 24.328 213.984 25.48 212.784 25.48ZM231.066 19.24C227.922 19.24 225.378 16.888 225.378 13.384C225.378 9.688 227.946 7.24 231.258 7.24C234.426 7.24 236.97 9.592 236.97 13.096C236.97 16.792 234.378 19.24 231.066 19.24ZM227.178 12.736C227.178 15.976 228.834 18.88 231.402 18.88C233.538 18.88 235.17 16.96 235.17 13.744C235.17 10.504 233.49 7.6 230.946 7.6C228.81 7.6 227.178 9.52 227.178 12.736Z" fill="#FF0000"/>
</svg>
