<svg width="361" height="513" viewBox="0 0 361 513" fill="none" xmlns="http://www.w3.org/2000/svg">
<path d="M144.599 220.745H144.777C128.153 239.157 108.31 255.246 82.5679 260.966C111.349 269.726 144.599 283.491 166.229 274.195C172.128 271.871 176.24 267.938 179.815 261.86L180.53 263.29C171.592 277.949 157.47 289.569 131.37 287.602C113.494 286.172 90.4335 270.083 73.451 262.397C68.2668 262.933 62.7252 263.112 57.0048 262.754C51.9994 262.575 48.4241 260.966 48.4241 258.642C48.4241 256.14 51.6419 254.71 56.2897 254.71C58.9712 254.71 64.334 255.961 70.9483 257.57L76.4899 259.179C99.1929 254.352 114.924 241.481 128.331 226.108C121.717 227.716 115.818 228.61 110.455 228.61C90.076 228.61 72.0209 218.778 72.0209 199.114C72.0209 174.624 102.232 156.569 133.337 156.569C139.951 156.569 146.744 157.284 153.358 159.25V160.68C145.493 158.356 135.839 157.999 133.873 157.999C103.841 157.999 79.7077 176.233 79.7077 198.936C79.7077 220.387 96.5114 226.823 110.455 226.823C116.175 226.823 122.79 225.929 130.298 223.784L133.337 220.208C159.972 187.495 182.497 145.485 211.992 145.485C218.07 145.485 222.003 148.882 222.003 154.602C222.003 173.372 181.603 205.729 144.599 220.745ZM214.138 147.631C193.937 147.631 175.525 185.35 147.459 217.706C183.212 202.511 220.394 172.121 220.394 154.424C220.394 149.954 218.07 147.631 214.138 147.631ZM57.0048 261.145C60.7588 261.145 64.5128 260.966 68.4456 260.43C58.2561 256.676 50.2118 255.782 50.2118 258.642C50.2118 259.894 53.2507 261.145 57.0048 261.145ZM214.279 260.143C200.34 260.143 189.144 249.631 189.144 232.036C189.144 215.241 200.226 203.016 215.308 203.016C228.218 203.016 236.216 210.671 236.444 223.696H197.141C197.027 224.953 196.913 226.324 196.913 227.695C196.913 244.261 206.396 254.544 218.164 254.544C226.162 254.544 233.245 249.631 238.044 240.834L238.844 241.291C233.931 253.859 224.105 260.143 214.279 260.143ZM197.37 221.868H225.019C227.304 221.868 227.875 221.182 227.875 218.783C227.875 212.156 223.648 204.73 214.508 204.73C206.053 204.73 199.084 210.785 197.37 221.868ZM260.611 260.143C253.984 260.143 248.843 256.601 248.843 247.917L248.843 208.729H242.33V207.358C249.528 204.73 252.727 198.903 255.355 191.819H256.726V204.159H275.464L274.664 208.729H256.726V246.204C256.726 253.173 260.496 255.572 265.752 255.572C269.522 255.572 272.95 254.316 276.035 252.373L276.606 253.059C272.036 257.515 266.095 260.143 260.611 260.143ZM276.753 200.502V200.16C287.036 198.674 294.348 190.105 296.062 184.621C293.777 187.935 290.807 189.877 288.179 189.877C285.894 189.877 284.751 188.277 284.751 186.107C284.98 180.737 291.378 174.91 295.719 174.91C298.119 174.91 299.49 176.509 299.376 178.794C299.147 184.736 290.007 198.674 276.753 200.502ZM291.378 182.108C291.149 182.565 290.921 183.364 291.492 183.364C292.063 183.364 293.092 182.336 293.32 181.536C293.434 181.308 293.32 180.851 292.977 180.851C292.635 180.851 291.949 181.308 291.378 182.108ZM300.933 260.143C294.535 260.143 289.279 258.771 285.852 257.058L284.481 244.261H285.28C288.365 253.287 293.849 258.429 301.047 258.429C308.817 258.429 313.958 253.973 313.958 247.803C313.958 243.119 310.987 239.006 302.761 235.578L298.762 233.864C289.165 229.751 286.309 224.381 286.309 218.44C286.309 209.3 293.278 203.016 302.533 203.016C308.017 203.016 312.016 204.044 316.015 205.644L317.043 217.069H316.243C313.272 209.3 307.903 204.73 302.418 204.73C296.934 204.73 291.793 208.043 291.793 214.099C291.793 218.783 293.735 222.325 302.761 226.209L306.76 227.923C316.243 232.036 319.556 237.406 319.556 243.576C319.556 253.402 311.673 260.143 300.933 260.143ZM145.844 442.874C157.106 442.23 159.68 440.943 161.45 434.669L191.696 329.449H181.56C164.828 329.449 157.749 333.31 143.752 353.421H142.626L155.979 325.909C159.036 326.553 164.989 326.874 171.425 326.874H226.126C232.562 326.874 238.354 326.553 241.732 325.909L239.48 353.421H238.193C235.779 333.31 231.114 329.449 214.381 329.449H204.085L173.999 434.669C172.229 440.943 174.16 442.23 184.939 442.874L184.617 444H145.522L145.844 442.874ZM227.52 444.914C221.465 444.914 220.436 440.001 220.322 435.317C214.381 441.715 209.125 444.914 203.299 444.914C196.443 444.914 191.53 440.344 191.53 433.717C191.53 428.462 194.501 424.691 206.84 421.035L220.322 417.036L220.322 405.04C220.322 397.956 217.237 393.386 210.839 393.386C206.155 393.386 198.728 397.042 198.728 399.441C198.728 400.584 200.099 402.983 200.099 404.925C200.099 407.325 198.5 408.582 196.329 408.582C194.501 408.582 192.787 407.553 192.787 405.497C192.787 402.983 195.072 399.441 198.728 396.242C203.756 391.672 209.697 388.473 215.181 388.473C222.95 388.473 228.206 393.272 228.206 403.212L228.206 434.86C228.206 438.173 229.462 440.458 232.205 440.458C234.718 440.458 236.66 438.402 238.374 435.888L239.06 436.345C237.117 440.23 233.461 444.914 227.52 444.914ZM199.414 431.546C199.414 436.802 202.842 440.001 207.869 440.001C211.982 440.001 215.981 437.602 220.322 433.489V418.636L209.24 422.178C202.385 424.234 199.414 426.862 199.414 431.546ZM239.906 443.2C246.418 442.743 248.018 442.286 248.018 437.716L248.018 374.534C248.018 364.48 246.99 362.423 240.82 361.509V360.824C246.418 360.138 251.674 358.196 256.016 355.568H256.587C255.901 360.138 255.901 365.394 255.901 374.534L255.901 437.716C255.901 442.286 257.501 442.743 264.013 443.2V444H239.906V443.2ZM312.845 444.457C309.76 444.457 307.589 442.515 304.39 438.173L289.309 417.722C288.737 416.808 288.052 416.237 287.138 416.237C286.338 416.237 285.767 416.808 284.853 417.722L282.339 420.121V437.716C282.339 442.286 283.939 442.743 289.537 443.2V444H266.801V443.2C272.856 442.743 274.456 442.286 274.456 437.716V374.534C274.456 364.48 273.428 362.423 267.715 361.509V360.824C272.856 360.138 278.112 358.196 282.454 355.568H283.025C282.339 360.138 282.339 365.394 282.339 374.534L282.339 418.065L300.963 399.327C303.476 396.814 304.39 394.871 304.39 393.386C304.39 391.215 302.905 389.958 299.135 389.958V389.159L321.642 389.159V389.958C315.815 390.644 310.217 392.7 302.448 400.355L292.965 409.724L311.817 434.86C317.186 441.943 319.586 442.743 323.927 443.2V444C320.157 444.229 316.158 444.457 312.845 444.457Z" fill="#FF0000"/>
<path d="M339.652 97.071C342.454 110.254 340.718 127.265 335.125 146.804C329.531 166.346 320.087 188.378 307.519 211.531C282.383 257.835 244.805 308.521 200.741 352.585C156.677 396.649 114.504 425.715 81.9465 437.103C65.6674 442.798 51.8104 444.067 41.3259 440.603C30.8435 437.14 23.7526 428.955 20.9504 415.772C18.1483 402.589 19.8838 385.578 25.477 366.04C31.0713 346.497 40.5149 324.465 53.0832 301.312C78.2188 255.008 115.797 204.322 159.861 160.258C203.925 116.194 246.098 87.1284 278.656 75.7398C294.935 70.0453 308.792 68.7766 319.276 72.2404C329.759 75.7034 336.849 83.8879 339.652 97.071Z" stroke="#FF0000"/>
</svg>
