<svg width="72" height="163" viewBox="0 0 72 163" fill="none" xmlns="http://www.w3.org/2000/svg">
<path d="M20.9423 25.4778C22.1187 25.4778 23.2951 25.4 24.4715 25.4C26.7466 25.4 27.923 26.1049 27.923 28.4578C27.923 30.2613 27.8452 31.987 27.8452 33.7906V53.08C27.8452 55.1947 28.0008 57.2364 28.0008 59.351C28.0008 61.2323 27.1404 61.2323 24.3938 61.2323C21.6472 61.2323 20.8645 61.2323 20.8645 59.351V58.8017C20.8645 57.7808 20.3152 57.3919 19.3721 57.3919H16.7859C15.2935 57.3919 14.6713 58.019 14.5886 59.5066C14.5886 60.7608 14.7442 61.9372 14.7442 63.1914C14.7442 65.0727 13.806 65.0727 10.9038 65.0727C8.00162 65.0727 7.14118 65.0727 7.14118 63.2692C7.14118 61.1546 7.21896 59.035 7.21896 56.9204V46.4152C7.21896 46.1819 7.14118 45.7881 6.74742 45.7881C6.51408 45.7881 6.43144 45.9437 6.27588 46.0993C5.88211 46.5708 5.49321 47.1201 4.78347 47.1201C3.21329 47.1201 0 43.4353 0 41.8651C0 41.238 0.549321 40.5331 0.938222 39.906C6.11545 32.4586 9.40652 22.2645 11.21 13.4025C11.21 13.2469 11.2878 13.0914 11.2878 12.9309C11.2878 11.9101 10.5052 11.4434 9.56208 11.3607C8.06968 11.4385 5.25015 11.5941 4.07373 11.5941C2.2702 11.5941 2.34798 10.4954 2.34798 7.7537C2.34798 4.85153 2.27021 3.99109 4.15151 3.99109C6.58214 3.99109 8.93498 4.14665 11.2878 4.14665H21.9486C24.3014 4.14665 26.732 3.99109 29.1626 3.99109C30.9662 3.99109 30.8884 5.01195 30.8884 7.7537C30.8884 10.4954 30.9662 11.5941 29.1626 11.5941C27.3591 11.5941 24.5347 11.3607 21.9486 11.3607H21.0881C19.6006 11.3607 18.813 11.8323 18.5019 13.3976C17.797 16.7713 17.0144 20.1402 16.1491 23.4361C16.0713 23.5917 16.0713 23.8299 16.0713 24.0632C16.0713 25.0841 16.854 25.3952 17.7193 25.473H20.9326L20.9423 25.4778ZM20.9423 35.0448C20.9423 33.7128 20.1596 33.0079 18.8276 32.8475H16.7908C15.381 33.003 14.5935 33.7079 14.5935 35.0448V47.7472C14.5935 49.0792 15.3761 49.7841 16.7908 49.9445H18.8276C20.1596 49.7889 20.9423 49.0841 20.9423 47.7472V35.0448ZM33.9607 15.5998C32.3127 15.5998 32.3905 14.5789 32.3905 11.9149C32.3905 9.25096 32.3127 8.15232 33.9607 8.15232C35.6087 8.15232 37.6455 8.38566 39.6873 8.30788C41.097 8.30788 41.8019 7.75856 41.8845 6.27102C41.8068 4.70083 41.6512 2.50841 41.6512 1.2542C41.6512 0.315981 41.8068 0 42.8276 0C44.8645 0 46.9062 0.315981 48.9431 0.471541C49.9639 0.549322 50.9022 0.627102 50.9022 1.4924C50.9022 2.04173 50.2751 2.27507 49.648 2.74661C49.1764 2.97995 49.1764 3.21815 49.1764 3.68969V6.1981C49.1764 7.68564 49.8813 8.31274 51.3737 8.31274H52.4723C54.1981 8.31274 55.9238 8.15718 57.6496 8.15718C60.158 8.15718 61.3344 9.01762 61.3344 11.6087C61.3344 12.7851 61.2566 14.1949 61.1789 15.3713L60.7851 24.5445V25.016C60.7851 26.4258 60.8629 26.8195 62.2775 26.8195H62.9824C65.1797 26.8195 65.4908 26.0369 65.8068 20.4707C65.8845 19.6103 66.2783 19.3721 67.061 19.3721C69.2583 19.3721 72 19.6054 72 21.8027C72 24 71.4507 27.8404 70.5902 29.8773C69.0978 33.5621 66.5894 34.0336 62.9046 34.0336H60.6295C56.3176 34.0336 53.1821 33.4843 53.1821 28.3119C53.1821 26.9022 53.1821 25.4875 53.2599 24.0778L53.5759 17.5686C53.4981 16.081 52.9488 15.4539 51.4612 15.4539H50.6008C49.2688 15.4539 48.7195 15.9255 48.4861 17.2574C46.8382 25.9591 43.2311 30.903 36.0997 36.0754C35.317 36.6247 34.3739 37.4073 33.4357 37.4073C31.4766 37.4073 28.4189 34.194 28.4189 32.6239C28.4189 31.6856 29.362 31.2919 30.0668 30.8203C35.0837 27.8404 39.6338 23.4507 40.9658 17.5686C40.9658 17.413 41.0435 17.1748 41.0435 17.0192C41.0435 15.9206 40.1831 15.4491 39.1622 15.4491C37.4365 15.3713 35.7108 15.6046 33.985 15.6046L33.9607 15.5998ZM55.5981 43.902H61.3198C64.0616 43.902 66.886 43.7464 69.7104 43.7464C71.5917 43.7464 71.4361 44.8451 71.4361 47.6646C71.4361 50.4841 71.5917 51.5827 69.7104 51.5827C66.886 51.5827 64.1442 51.3494 61.3198 51.3494H55.5981C54.1057 51.3494 53.4835 52.0543 53.4835 53.5467V58.8017C53.4835 61.8594 53.639 64.8394 53.639 67.8971C53.639 70.25 52.7786 70.3277 49.6382 70.3277C46.3472 70.3277 45.4819 70.1722 45.4819 67.9749C45.4819 64.9172 45.6374 61.8594 45.6374 58.8017V53.5467C45.6374 52.0592 45.0103 51.3494 43.4401 51.3494H40.0664C37.3198 51.3494 34.5003 51.5827 31.6759 51.5827C29.7946 51.5827 29.9502 50.4841 29.9502 47.6646C29.9502 44.8451 29.7946 43.7464 31.6759 43.7464C34.5003 43.7464 37.3198 43.902 40.0664 43.902H43.4401C45.0103 43.902 45.6374 43.2749 45.6374 41.7873C45.7152 39.7505 45.5596 37.7087 45.4041 35.7496C45.4041 35.5163 45.3263 35.2003 45.3263 34.967C45.3263 34.1065 46.0312 33.9461 46.7361 33.9461C47.7569 33.9461 52.5404 34.3399 53.712 34.4177C54.3391 34.4954 55.3599 34.5732 55.3599 35.4385C55.3599 35.9879 54.8884 36.2212 54.3391 36.5372C53.396 37.2421 53.396 37.9469 53.4786 41.7922C53.5564 43.2797 54.1057 43.9068 55.5933 43.9068L55.5981 43.902Z" fill="#FF0000"/>
<path d="M68.1739 104.847H68.4947C69.6809 104.847 70.6385 103.89 70.6385 102.703V99.7818C70.6385 98.6006 69.6809 97.638 68.1155 97.638C68.1155 97.638 66.9586 97.6818 64.0321 97.8276C61.1785 97.9735 14.1216 97.8519 11.6035 97.638C9.08537 97.4241 7.74852 97.638 7.74852 97.638C6.94641 97.638 5.98389 98.5957 5.98389 99.7818V160.144C5.98389 161.33 6.94155 162.288 8.1277 162.288H68.4899C69.676 162.288 70.6337 161.33 70.6337 160.144V157.222C70.6337 156.036 69.676 155.079 68.4899 155.079H68.169C67.5905 155.079 67.1238 154.612 67.1238 154.033V105.892C67.1238 105.314 67.5905 104.847 68.169 104.847H68.1739ZM41.3641 131.613C49.4046 139.596 53.4929 143.353 53.4929 143.353C54.12 143.98 54.12 144.991 53.4929 145.619L52.3165 146.795C51.6894 147.422 50.6782 147.422 50.0511 146.795C50.0511 146.795 46.867 143.29 38.3063 134.671C37.5723 133.932 36.3716 133.932 35.6375 134.671C27.6602 142.712 23.9025 146.795 23.9025 146.795C23.2754 147.422 22.2642 147.422 21.6371 146.795L20.4607 145.619C19.8336 144.991 19.8336 143.98 20.4607 143.353C20.4607 143.353 23.9657 140.169 32.5798 131.613C33.3187 130.879 33.3187 129.679 32.5798 128.945C24.1407 120.564 20.4607 117.205 20.4607 117.205C19.8336 116.577 19.8336 115.566 20.4607 114.939L21.6371 113.763C22.2642 113.136 23.2754 113.136 23.9025 113.763C23.9025 113.763 27.8012 117.978 35.6375 125.887C36.3716 126.626 37.5723 126.626 38.3063 125.887C46.6871 117.443 50.0511 113.763 50.0511 113.763C50.6782 113.136 51.6894 113.136 52.3165 113.763L53.4929 114.939C54.12 115.566 54.12 116.577 53.4929 117.205C53.4929 117.205 49.2733 121.103 41.3641 128.945C40.6252 129.679 40.6252 130.879 41.3641 131.613Z" fill="#FF0000"/>
</svg>
