<svg width="66" height="132" viewBox="0 0 66 132" fill="none" xmlns="http://www.w3.org/2000/svg">
<path opacity="0.8" d="M54.49 55.951C54.49 55.73 54.594 55.509 54.711 55.301C55.478 53.923 56.063 52.61 56.479 51.115C56.583 50.738 56.622 50.53 56.622 50.439C56.622 50.309 56.557 50.244 56.427 50.244H56.232C54.854 50.244 54.373 49.152 54.373 48.996C54.373 48.944 54.399 48.918 54.425 48.918C54.464 48.918 54.49 48.931 54.594 48.983C54.88 49.126 55.374 49.204 55.855 49.217C56.323 49.23 56.674 49.217 56.843 49.048C56.999 48.892 57.012 48.645 57.012 48.138C57.012 47.813 56.921 47.319 56.687 47.072C56.531 46.903 56.427 46.812 56.427 46.721C56.427 46.565 56.921 46.422 57.207 46.422C57.584 46.422 57.818 46.539 58.104 46.747C58.208 46.825 58.377 46.968 58.377 47.111C58.377 47.176 58.351 47.241 58.325 47.293C58.299 47.345 58.26 47.41 58.26 47.475C58.26 47.709 59.209 47.93 59.352 47.93C59.508 47.93 59.625 47.904 59.781 47.904C60.132 47.904 60.314 48.099 60.314 48.411C60.314 49.334 59.131 49.75 58.182 50.062C57.87 50.166 57.727 50.27 57.636 50.699C57.363 51.96 56.973 53.507 56.427 54.989C56.05 56.003 55.621 56.705 55.036 56.705C54.724 56.705 54.49 56.328 54.49 55.951ZM63.291 46.5C63.642 46.5 64.084 46.539 64.526 46.747C64.942 46.942 65.293 47.332 65.293 47.709C65.293 48.06 65.085 48.281 64.825 48.281C64.578 48.281 64.422 48.19 64.11 47.696C63.837 47.267 63.356 46.942 63.005 46.773C62.927 46.734 62.849 46.695 62.849 46.63C62.849 46.552 63.083 46.5 63.291 46.5ZM61.978 47.41C62.303 47.41 62.719 47.475 63.174 47.683C63.577 47.865 63.98 48.216 63.98 48.697C63.98 48.983 63.759 49.256 63.473 49.256C63.148 49.256 62.992 48.97 62.719 48.606C62.524 48.346 62.056 47.878 61.796 47.683C61.692 47.605 61.627 47.566 61.627 47.501C61.627 47.423 61.731 47.41 61.978 47.41ZM58.286 47.956C58.156 47.956 58.117 48.034 58.039 48.346C58.013 48.45 57.961 48.658 57.961 48.736C57.961 48.788 57.987 48.853 58.078 48.853C58.273 48.853 58.949 48.541 58.949 48.333C58.949 48.151 58.442 47.956 58.286 47.956ZM59.443 50.725C59.417 50.725 59.326 50.725 59.326 50.66C59.326 50.4 60.743 49.854 61.848 49.854C62.602 49.854 64.058 49.984 64.058 50.985C64.058 51.219 63.902 51.466 63.525 51.466C63.33 51.466 63.096 51.427 62.732 51.427C62.277 51.427 61.77 51.57 61.341 51.739C61.276 51.765 61.12 51.817 61.055 51.817C61.029 51.817 60.99 51.804 60.99 51.765C60.99 51.739 61.003 51.713 61.081 51.648C61.159 51.583 61.796 51.089 61.796 50.933C61.796 50.673 60.587 50.543 59.651 50.699C59.573 50.712 59.482 50.725 59.443 50.725ZM58.741 53.962C58.793 53.962 58.806 54.014 58.832 54.118C58.975 54.677 59.157 55.041 59.703 55.327C60.275 55.626 60.925 55.678 61.549 55.678C62.134 55.678 62.472 55.561 62.888 55.561C63.265 55.561 64.136 55.808 64.136 56.406C64.136 57.056 63.057 57.082 62.524 57.082H62.42C61.523 57.082 60.444 57.004 59.651 56.575C58.884 56.159 58.559 55.522 58.559 54.638C58.559 54.534 58.598 53.962 58.741 53.962Z" fill="#FF0000"/>
<path opacity="0.8" d="M59.144 9.474C59.144 9.409 59.209 9.383 59.326 9.383C59.937 9.383 61.419 10.202 61.419 10.735C61.419 10.878 61.367 10.982 60.938 11.385C60.197 12.074 59.482 12.763 58.91 13.348C58.364 13.907 57.961 14.375 57.779 14.687C57.714 14.804 57.701 14.882 57.701 14.96C57.701 15.051 57.727 15.155 57.792 15.259C57.974 15.558 58.819 16.377 59.144 16.689C59.924 17.443 60.561 18.236 60.912 18.834C61.133 19.211 61.185 19.445 61.185 19.692C61.185 20.121 60.769 20.459 60.327 20.459C59.742 20.459 59.599 20.017 59.391 19.406C59.053 18.405 57.974 16.871 57.311 16.052C57.077 15.766 56.856 15.454 56.856 15.077C56.856 14.765 56.947 14.466 57.402 13.816C58.26 12.581 59.521 11.125 59.521 10.449C59.521 10.241 59.43 9.942 59.235 9.669C59.17 9.578 59.144 9.526 59.144 9.474Z" fill="#FF0000"/>
<path d="M17.0338 20.7229C17.9907 20.7229 18.9475 20.6596 19.9044 20.6596C21.7549 20.6596 22.7117 21.2329 22.7117 23.1467C22.7117 24.6136 22.6485 26.0173 22.6485 27.4842V43.1736C22.6485 44.8936 22.775 46.5543 22.775 48.2743C22.775 49.8045 22.0751 49.8045 19.8411 49.8045C17.6071 49.8045 16.9705 49.8045 16.9705 48.2743V47.8275C16.9705 46.9971 16.5237 46.6808 15.7567 46.6808H13.6531C12.4393 46.6808 11.9331 47.1909 11.8659 48.4008C11.8659 49.4209 11.9925 50.3778 11.9925 51.3979C11.9925 52.9281 11.2293 52.9281 8.8688 52.9281C6.50827 52.9281 5.80841 52.9281 5.80841 51.4612C5.80841 49.7412 5.87167 48.0173 5.87167 46.2973V37.7527C5.87167 37.5629 5.80841 37.2426 5.48814 37.2426C5.29835 37.2426 5.23113 37.3692 5.1046 37.4957C4.78433 37.8792 4.46801 38.326 3.89073 38.326C2.61359 38.326 0 35.3289 0 34.0518C0 33.5417 0.446801 32.9684 0.76312 32.4583C4.97412 26.4008 7.65097 18.1093 9.1179 10.9012C9.1179 10.7746 9.18116 10.6481 9.18116 10.5176C9.18116 9.68728 8.54457 9.30769 7.7775 9.24047C6.56362 9.30374 4.27031 9.43027 3.31344 9.43027C1.84651 9.43027 1.90978 8.53666 1.90978 6.30661C1.90978 3.94608 1.84651 3.24623 3.37671 3.24623C5.3537 3.24623 7.26743 3.37275 9.18116 3.37275H17.8523C19.766 3.37275 21.743 3.24623 23.72 3.24623C25.1869 3.24623 25.1237 4.07656 25.1237 6.30661C25.1237 8.53666 25.1869 9.43027 23.72 9.43027C22.2531 9.43027 19.9558 9.24047 17.8523 9.24047H17.1524C15.9425 9.24047 15.3019 9.62401 15.0489 10.8972C14.4756 13.6413 13.839 16.3814 13.1352 19.0622C13.0719 19.1887 13.0719 19.3825 13.0719 19.5723C13.0719 20.4026 13.7085 20.6556 14.4123 20.7189H17.0259L17.0338 20.7229ZM17.0338 28.5043C17.0338 27.4209 16.3972 26.8476 15.3138 26.7171H13.6571C12.5104 26.8436 11.8699 27.417 11.8699 28.5043V38.8361C11.8699 39.9195 12.5065 40.4928 13.6571 40.6233H15.3138C16.3972 40.4968 17.0338 39.9234 17.0338 38.8361V28.5043ZM27.6226 12.6884C26.2822 12.6884 26.3454 11.858 26.3454 9.69123C26.3454 7.52444 26.2822 6.63084 27.6226 6.63084C28.963 6.63084 30.6197 6.82063 32.2804 6.75737C33.427 6.75737 34.0004 6.31057 34.0676 5.10065C34.0043 3.82351 33.8778 2.04026 33.8778 1.02013C33.8778 0.257009 34.0043 0 34.8346 0C36.4914 0 38.152 0.257009 39.8088 0.383537C40.6391 0.446801 41.4022 0.510065 41.4022 1.21387C41.4022 1.66068 40.8922 1.85047 40.3821 2.234C39.9986 2.4238 39.9986 2.61754 39.9986 3.00108V5.04134C39.9986 6.25126 40.5719 6.76132 41.7858 6.76132H42.6794C44.083 6.76132 45.4867 6.6348 46.8904 6.6348C48.9306 6.6348 49.8875 7.33465 49.8875 9.44213C49.8875 10.399 49.8242 11.5457 49.761 12.5025L49.4407 19.9637V20.3472C49.4407 21.4939 49.504 21.8142 50.6546 21.8142H51.2279C53.0151 21.8142 53.2682 21.1776 53.5252 16.6503C53.5884 15.9504 53.9087 15.7567 54.5453 15.7567C56.3325 15.7567 58.5625 15.9464 58.5625 17.7336C58.5625 19.5208 58.1157 22.6445 57.4159 24.3012C56.202 27.2983 54.1618 27.6819 51.1646 27.6819H49.3142C45.807 27.6819 43.2566 27.2351 43.2566 23.028C43.2566 21.8814 43.2566 20.7308 43.3199 19.5841L43.5769 14.2897C43.5137 13.0798 43.0669 12.5697 41.8569 12.5697H41.1571C40.0737 12.5697 39.6269 12.9533 39.4371 14.0367C38.0967 21.1143 35.1628 25.1355 29.3623 29.3426C28.7257 29.7894 27.9587 30.426 27.1955 30.426C25.6021 30.426 23.115 27.8124 23.115 26.5352C23.115 25.7721 23.8821 25.4518 24.4554 25.0683C28.5359 22.6445 32.2369 19.074 33.3203 14.2897C33.3203 14.1632 33.3835 13.9694 33.3835 13.8429C33.3835 12.9493 32.6837 12.5658 31.8533 12.5658C30.4497 12.5025 29.046 12.6923 27.6423 12.6923L27.6226 12.6884ZM45.2218 35.7085H49.8756C52.1057 35.7085 54.4029 35.582 56.7002 35.582C58.2304 35.582 58.1039 36.4756 58.1039 38.7689C58.1039 41.0622 58.2304 41.9558 56.7002 41.9558C54.4029 41.9558 52.1729 41.766 49.8756 41.766H45.2218C44.0079 41.766 43.5018 42.3393 43.5018 43.5532V47.8275C43.5018 50.3145 43.6283 52.7383 43.6283 55.2254C43.6283 57.1391 42.9285 57.2024 40.3742 57.2024C37.6973 57.2024 36.9935 57.0758 36.9935 55.2886C36.9935 52.8016 37.1201 50.3145 37.1201 47.8275V43.5532C37.1201 42.3433 36.61 41.766 35.3328 41.766H32.5888C30.3548 41.766 28.0615 41.9558 25.7642 41.9558C24.234 41.9558 24.3605 41.0622 24.3605 38.7689C24.3605 36.4756 24.234 35.582 25.7642 35.582C28.0615 35.582 30.3548 35.7085 32.5888 35.7085H35.3328C36.61 35.7085 37.1201 35.1984 37.1201 33.9885C37.1833 32.3318 37.0568 30.6711 36.9303 29.0776C36.9303 28.8879 36.867 28.6308 36.867 28.4411C36.867 27.7412 37.4403 27.6107 38.0137 27.6107C38.844 27.6107 42.7347 27.931 43.6876 27.9942C44.1977 28.0575 45.028 28.1208 45.028 28.8246C45.028 29.2714 44.6445 29.4612 44.1977 29.7182C43.4306 30.2915 43.4306 30.8648 43.4978 33.9925C43.5611 35.2024 44.0079 35.7124 45.2178 35.7124L45.2218 35.7085Z" fill="white"/>
<path d="M55.4508 85.2797H55.7118C56.6766 85.2797 57.4555 84.5007 57.4555 83.5359V81.1596C57.4555 80.1988 56.6766 79.4159 55.4034 79.4159C55.4034 79.4159 54.4623 79.4515 52.082 79.5701C49.761 79.6887 11.4864 79.5899 9.43824 79.4159C7.39008 79.2419 6.30273 79.4159 6.30273 79.4159C5.65032 79.4159 4.86743 80.1948 4.86743 81.1596V130.256C4.86743 131.221 5.64637 132 6.61114 132H55.7078C56.6726 132 57.4515 131.221 57.4515 130.256V127.88C57.4515 126.915 56.6726 126.136 55.7078 126.136H55.4469C54.9763 126.136 54.5968 125.757 54.5968 125.286V86.1298C54.5968 85.6592 54.9763 85.2797 55.4469 85.2797H55.4508ZM33.6446 107.05C40.1845 113.543 43.5098 116.599 43.5098 116.599C44.0198 117.109 44.0198 117.932 43.5098 118.442L42.5529 119.399C42.0428 119.909 41.2204 119.909 40.7103 119.399C40.7103 119.399 38.1205 116.548 31.1575 109.537C30.5605 108.936 29.5838 108.936 28.9868 109.537C22.4983 116.077 19.4418 119.399 19.4418 119.399C18.9318 119.909 18.1093 119.909 17.5993 119.399L16.6424 118.442C16.1323 117.932 16.1323 117.109 16.6424 116.599C16.6424 116.599 19.4932 114.009 26.4997 107.05C27.1007 106.453 27.1007 105.477 26.4997 104.88C19.6356 98.0629 16.6424 95.3307 16.6424 95.3307C16.1323 94.8206 16.1323 93.9982 16.6424 93.4881L17.5993 92.5313C18.1093 92.0212 18.9318 92.0212 19.4418 92.5313C19.4418 92.5313 22.6129 95.9594 28.9868 102.393C29.5838 102.994 30.5605 102.994 31.1575 102.393C37.9742 95.5244 40.7103 92.5313 40.7103 92.5313C41.2204 92.0212 42.0428 92.0212 42.5529 92.5313L43.5098 93.4881C44.0198 93.9982 44.0198 94.8206 43.5098 95.3307C43.5098 95.3307 40.0777 98.5018 33.6446 104.88C33.0436 105.477 33.0436 106.453 33.6446 107.05Z" fill="white"/>
<path opacity="0.8" d="M59.144 101.049C59.144 100.984 59.209 100.958 59.326 100.958C59.937 100.958 61.419 101.777 61.419 102.31C61.419 102.453 61.367 102.557 60.938 102.96C60.197 103.649 59.482 104.338 58.91 104.923C58.364 105.482 57.961 105.95 57.779 106.262C57.714 106.379 57.701 106.457 57.701 106.535C57.701 106.626 57.727 106.73 57.792 106.834C57.974 107.133 58.819 107.952 59.144 108.264C59.924 109.018 60.561 109.811 60.912 110.409C61.133 110.786 61.185 111.02 61.185 111.267C61.185 111.696 60.769 112.034 60.327 112.034C59.742 112.034 59.599 111.592 59.391 110.981C59.053 109.98 57.974 108.446 57.311 107.627C57.077 107.341 56.856 107.029 56.856 106.652C56.856 106.34 56.947 106.041 57.402 105.391C58.26 104.156 59.521 102.7 59.521 102.024C59.521 101.816 59.43 101.517 59.235 101.244C59.17 101.153 59.144 101.101 59.144 101.049Z" fill="#FF0000"/>
</svg>
