<svg width="90" height="115" viewBox="0 0 90 115" fill="none" xmlns="http://www.w3.org/2000/svg">
<path d="M3.62438 109.888C4.72838 109.824 5.01638 109.696 5.19238 109.072L7.99238 99.28C8.16838 98.656 7.99238 98.528 6.92038 98.464L6.93638 98.352H10.2644C12.7604 98.352 14.1684 99.296 14.1684 101.024C14.1684 103.296 12.1044 104.816 8.23238 104.816L8.28038 104.624C11.4324 104.416 12.9204 102.976 12.9204 101.008C12.9204 99.536 11.8804 98.608 10.0084 98.608H9.43238L6.42438 109.056C6.24838 109.696 6.44038 109.824 7.89638 109.888L7.88038 110H3.60838L3.62438 109.888ZM14.118 110.16C13.798 110.16 13.654 109.904 13.654 109.552C13.654 109.264 13.83 108.624 13.958 108.192L16.358 99.84C16.694 98.64 16.646 98.464 15.59 98.464L15.622 98.352C16.614 98.304 17.702 98.048 17.798 98.048C17.91 98.048 17.942 98.08 17.942 98.16C17.942 98.256 17.67 98.992 17.43 99.84L14.982 108.352C14.854 108.752 14.79 109.12 14.966 109.12C15.158 109.12 15.526 108.736 16.486 107.568L16.582 107.648C15.366 109.456 14.726 110.16 14.118 110.16ZM18.3261 110.16C17.6701 110.16 17.3981 109.584 17.3981 108.704C17.3981 106.128 19.7821 102.224 22.1021 102.224C22.5501 102.224 22.9341 102.4 23.1421 102.8V102.784C23.3021 102.272 23.8941 102 24.1501 102C24.2461 102 24.2781 102.032 24.2781 102.112C24.2781 102.24 24.1341 102.672 23.8301 103.76L22.5181 108.352C22.3901 108.784 22.3261 109.12 22.5181 109.12C22.7261 109.12 23.1101 108.736 24.0701 107.568L24.1661 107.648C22.9501 109.472 22.2941 110.16 21.6861 110.16C21.3341 110.16 21.1901 109.904 21.1901 109.568C21.1901 109.248 21.3501 108.688 21.4941 108.192L21.9421 106.704H21.8941C20.8541 108.64 19.3181 110.16 18.3261 110.16ZM18.5021 108.208C18.5021 108.784 18.6621 109.184 19.0621 109.184C20.0381 109.184 21.9101 106.768 22.5181 104.672C22.6141 104.336 22.7741 103.712 22.7741 103.392C22.7741 102.848 22.5981 102.464 22.1021 102.464C20.4221 102.464 18.5021 106.288 18.5021 108.208ZM23.456 114.32C22.64 114.32 22.32 113.984 22.32 113.664C22.32 113.408 22.512 113.152 22.832 113.152C23.072 113.152 23.232 113.264 23.424 113.424C23.648 113.6 23.872 113.744 24.256 113.744C26.608 113.744 27.456 109.984 27.456 107.184C27.456 105.152 26.976 103.168 26.352 103.168C25.952 103.168 25.648 103.952 25.184 105.568L25.072 105.52C25.344 103.392 25.92 102.16 26.736 102.16C27.712 102.16 28.416 103.872 28.416 106.4C28.416 108.416 27.968 110.32 27.232 111.712H27.28C29.088 109.408 30.272 106.448 30.272 103.904C30.272 103.28 30.176 102.896 30.176 102.688C30.176 102.4 30.32 102.16 30.64 102.16C30.992 102.16 31.2 102.448 31.2 103.104C31.2 106.128 27.696 114.32 23.456 114.32ZM40.6296 110.16C38.1816 110.16 36.5176 108.256 36.5176 105.632C36.5176 102.352 39.1736 98.192 42.9976 98.192C45.2856 98.192 46.1816 99.536 46.5176 99.536C46.6936 99.536 46.8376 99.424 47.0456 98.88H47.1576L46.5816 102.4H46.4696C46.3096 99.712 44.9496 98.48 43.0776 98.48C39.8136 98.48 37.8616 102.704 37.8616 105.632C37.8616 107.936 39.1416 109.552 41.2376 109.552C42.7736 109.552 44.2456 108.576 45.4136 107.04L45.5416 107.136C44.3096 108.88 42.5656 110.16 40.6296 110.16ZM48.919 110.16C47.703 110.16 46.919 109.248 46.919 107.696C46.919 105.632 48.439 102.16 50.791 102.16C52.007 102.16 52.791 103.072 52.791 104.624C52.791 106.688 51.271 110.16 48.919 110.16ZM47.879 108.432C47.879 109.232 48.103 109.904 48.807 109.904C50.471 109.904 51.831 105.488 51.831 103.888C51.831 103.088 51.591 102.416 50.903 102.416C49.223 102.416 47.879 106.832 47.879 108.432ZM54.2674 110.16C54.0274 110.16 53.8834 110.032 53.8834 109.792C53.8834 109.648 53.9154 109.488 54.0274 109.136L55.5154 103.968C55.6274 103.536 55.6914 103.2 55.5314 103.2C55.3394 103.2 54.9714 103.584 54.0114 104.752L53.9154 104.672C55.1314 102.864 55.7554 102.16 56.3634 102.16C56.6834 102.16 56.8274 102.416 56.8274 102.768C56.8274 103.088 56.6674 103.696 56.5234 104.128L55.6274 107.12H55.6754C56.8274 104.688 58.5554 102.16 59.8514 102.16C60.2354 102.16 60.4594 102.4 60.4594 102.8C60.4594 103.136 60.3154 103.68 60.1874 104.128L58.9714 108.352C58.8434 108.784 58.7954 109.12 58.9554 109.12C59.1314 109.12 59.5154 108.736 60.4754 107.568L60.5714 107.648C59.3554 109.456 58.7314 110.16 58.1234 110.16C57.7874 110.16 57.6434 109.904 57.6434 109.552C57.6434 109.264 57.8194 108.624 57.9474 108.192L59.1474 104.064C59.2914 103.568 59.3394 103.2 59.0514 103.2C58.2354 103.2 55.8834 106.56 54.9714 109.456C54.8274 109.904 54.5714 110.16 54.2674 110.16ZM62.8123 110.16C61.8683 110.16 61.4683 109.456 61.4683 108.368C61.4683 105.808 63.6443 102.16 65.9803 102.16C66.7643 102.16 67.2763 102.592 67.2763 103.328C67.2763 103.808 67.0523 104.192 66.6683 104.192C66.3163 104.192 66.1723 103.968 66.2363 103.552C66.3643 102.768 66.1883 102.448 65.7083 102.448C64.2203 102.448 62.5723 106.032 62.5723 107.952C62.5723 108.736 62.8283 109.216 63.4043 109.216C64.1563 109.216 65.2123 108.432 66.1883 107.232L66.3003 107.296C65.1323 109.088 63.9643 110.16 62.8123 110.16ZM68.8704 110.16C67.9264 110.16 67.5264 109.456 67.5264 108.352C67.5264 105.808 69.6544 102.16 71.9904 102.16C72.7264 102.16 73.4144 102.512 73.4144 103.312C73.4144 104.608 71.7024 106.144 68.9184 106.272C68.7264 106.896 68.6304 107.488 68.6304 107.968C68.6304 108.752 68.8704 109.216 69.4464 109.216C70.2144 109.216 71.3504 108.432 72.3264 107.232L72.4384 107.296C71.2704 109.088 70.0224 110.16 68.8704 110.16ZM68.9824 106.032C71.2064 105.872 72.4384 104.448 72.4384 103.28C72.4384 102.8 72.2304 102.448 71.7504 102.448C70.6784 102.448 69.5424 104.288 68.9824 106.032ZM71.6611 114.192C72.5251 114.096 72.7971 114 72.9571 113.456L75.8051 103.504C75.1971 103.84 74.6211 104.272 74.1571 104.752L74.0611 104.672C74.6531 103.952 75.3091 103.392 75.9491 102.992L76.3491 101.6C76.4931 101.088 77.1971 100.816 77.4851 100.816C77.5651 100.816 77.5971 100.848 77.5971 100.928C77.5971 101.04 77.4851 101.44 77.1971 102.384C77.6611 102.24 78.1251 102.16 78.5571 102.16C79.9491 102.16 80.4771 103.008 80.4771 104.144C80.4771 106.528 78.0611 110.096 75.5651 110.096C75.3891 110.096 75.1651 110.096 74.9411 110.08L74.0131 113.328C73.8371 113.936 74.2531 114 75.2611 114.032L75.2291 114.16L71.6451 114.32L71.6611 114.192ZM75.2131 109.392C75.2131 109.664 75.3091 109.856 75.6131 109.856C77.4531 109.856 79.3891 106.528 79.3891 104.448C79.3891 103.504 79.0051 102.816 77.9811 102.816C77.6931 102.816 77.3731 102.864 77.0371 102.976L75.3411 108.72C75.2611 108.976 75.2131 109.2 75.2131 109.392ZM82.0699 110.16C81.6539 110.16 81.4619 109.904 81.4619 109.488C81.4619 109.232 81.5739 108.784 81.6699 108.432L83.3179 102.784H82.0379L82.1819 102.32H83.4459L83.8779 100.848C84.0219 100.336 84.7099 100.064 84.9979 100.064C85.0779 100.064 85.1099 100.096 85.1099 100.176C85.1099 100.304 84.9659 100.768 84.6619 101.824L84.5179 102.32H86.6139L86.3739 102.784H84.3899L82.7739 108.32C82.6459 108.784 82.5979 109.12 82.8859 109.12C83.2059 109.12 83.9419 108.48 84.9499 107.568L85.0459 107.648C83.7659 109.264 82.7899 110.16 82.0699 110.16Z" fill="white"/>
<path d="M43.0101 57.6443L44.7619 52.2688C45.0772 51.3004 45.8947 50.585 46.8875 50.4071C48.0242 50.2055 49.1765 50.1383 50.3288 50.2095C51.049 50.253 51.5551 50.9447 51.3877 51.6601L50.5936 55.0277C50.5936 56.6364 52.4466 57.5099 53.6573 56.4704L65.3401 46.4427C66.22 45.6877 66.22 44.3123 65.3401 43.5573L53.6573 33.5296C52.4466 32.4901 50.5936 33.3636 50.5936 34.9723L51.3877 38.3399C51.5551 39.0514 51.049 39.747 50.3288 39.7905C49.1765 39.8577 48.0242 39.7905 46.8875 39.5929C45.8947 39.419 45.0811 38.7036 44.7619 37.7312L43.0101 32.3557C42.7453 31.5415 42.0485 31 41.266 31H29.8518C28.571 31.004 27.6756 32.4111 28.1117 33.747L29.6533 40.6917C30.2839 43.5296 30.2839 46.4743 29.6533 49.3123L28.1117 56.2569C27.6756 57.5929 28.571 59 29.8557 59H41.2699C42.0524 59 42.7492 58.4585 43.0139 57.6443H43.0101Z" fill="white"/>
<circle cx="45" cy="45" r="44.5" stroke="#D9D9D9"/>
</svg>
