<svg width="122" height="43" viewBox="0 0 122 43" fill="none" xmlns="http://www.w3.org/2000/svg">
<path d="M48.7963 26.9021C49.7623 26.8461 50.0143 26.7341 50.1683 26.1881L52.6183 17.6201C52.7723 17.0741 52.6183 16.9621 51.6803 16.9061L51.6943 16.8081H54.6063C56.7903 16.8081 58.0223 17.6341 58.0223 19.1461C58.0223 21.1341 56.2163 22.4641 52.8283 22.4641L52.8703 22.2961C55.6283 22.1141 56.9303 20.8541 56.9303 19.1321C56.9303 17.8441 56.0203 17.0321 54.3823 17.0321H53.8783L51.2463 26.1741C51.0923 26.7341 51.2603 26.8461 52.5343 26.9021L52.5203 27.0001H48.7823L48.7963 26.9021ZM57.9782 27.1401C57.6982 27.1401 57.5722 26.9161 57.5722 26.6081C57.5722 26.3561 57.7262 25.7961 57.8382 25.4181L59.9382 18.1101C60.2322 17.0601 60.1902 16.9061 59.2662 16.9061L59.2942 16.8081C60.1622 16.7661 61.1142 16.5421 61.1982 16.5421C61.2962 16.5421 61.3242 16.5701 61.3242 16.6401C61.3242 16.7241 61.0862 17.3681 60.8762 18.1101L58.7342 25.5581C58.6222 25.9081 58.5662 26.2301 58.7202 26.2301C58.8882 26.2301 59.2102 25.8941 60.0502 24.8721L60.1342 24.9421C59.0702 26.5241 58.5102 27.1401 57.9782 27.1401ZM61.6604 27.1401C61.0864 27.1401 60.8484 26.6361 60.8484 25.8661C60.8484 23.6121 62.9344 20.1961 64.9644 20.1961C65.3564 20.1961 65.6924 20.3501 65.8744 20.7001V20.6861C66.0144 20.2381 66.5324 20.0001 66.7564 20.0001C66.8404 20.0001 66.8684 20.0281 66.8684 20.0981C66.8684 20.2101 66.7424 20.5881 66.4764 21.5401L65.3284 25.5581C65.2164 25.9361 65.1604 26.2301 65.3284 26.2301C65.5104 26.2301 65.8464 25.8941 66.6864 24.8721L66.7704 24.9421C65.7064 26.5381 65.1324 27.1401 64.6004 27.1401C64.2924 27.1401 64.1664 26.9161 64.1664 26.6221C64.1664 26.3421 64.3064 25.8521 64.4324 25.4181L64.8244 24.1161H64.7824C63.8724 25.8101 62.5284 27.1401 61.6604 27.1401ZM61.8144 25.4321C61.8144 25.9361 61.9544 26.2861 62.3044 26.2861C63.1584 26.2861 64.7964 24.1721 65.3284 22.3381C65.4124 22.0441 65.5524 21.4981 65.5524 21.2181C65.5524 20.7421 65.3984 20.4061 64.9644 20.4061C63.4944 20.4061 61.8144 23.7521 61.8144 25.4321ZM66.149 30.7801C65.435 30.7801 65.155 30.4861 65.155 30.2061C65.155 29.9821 65.323 29.7581 65.603 29.7581C65.813 29.7581 65.953 29.8561 66.121 29.9961C66.317 30.1501 66.513 30.2761 66.849 30.2761C68.907 30.2761 69.649 26.9861 69.649 24.5361C69.649 22.7581 69.229 21.0221 68.683 21.0221C68.333 21.0221 68.067 21.7081 67.661 23.1221L67.563 23.0801C67.801 21.2181 68.305 20.1401 69.019 20.1401C69.873 20.1401 70.489 21.6381 70.489 23.8501C70.489 25.6141 70.097 27.2801 69.453 28.4981H69.495C71.077 26.4821 72.113 23.8921 72.113 21.6661C72.113 21.1201 72.029 20.7841 72.029 20.6021C72.029 20.3501 72.155 20.1401 72.435 20.1401C72.743 20.1401 72.925 20.3921 72.925 20.9661C72.925 23.6121 69.859 30.7801 66.149 30.7801ZM81.1759 27.1401C79.0339 27.1401 77.5779 25.4741 77.5779 23.1781C77.5779 20.3081 79.9019 16.6681 83.2479 16.6681C85.2499 16.6681 86.0339 17.8441 86.3279 17.8441C86.4819 17.8441 86.6079 17.7461 86.7899 17.2701H86.8879L86.3839 20.3501H86.2859C86.1459 17.9981 84.9559 16.9201 83.3179 16.9201C80.4619 16.9201 78.7539 20.6161 78.7539 23.1781C78.7539 25.1941 79.8739 26.6081 81.7079 26.6081C83.0519 26.6081 84.3399 25.7541 85.3619 24.4101L85.4739 24.4941C84.3959 26.0201 82.8699 27.1401 81.1759 27.1401ZM88.4291 27.1401C87.3651 27.1401 86.6791 26.3421 86.6791 24.9841C86.6791 23.1781 88.0091 20.1401 90.0671 20.1401C91.1311 20.1401 91.8171 20.9381 91.8171 22.2961C91.8171 24.1021 90.4871 27.1401 88.4291 27.1401ZM87.5191 25.6281C87.5191 26.3281 87.7151 26.9161 88.3311 26.9161C89.7871 26.9161 90.9771 23.0521 90.9771 21.6521C90.9771 20.9521 90.7671 20.3641 90.1651 20.3641C88.6951 20.3641 87.5191 24.2281 87.5191 25.6281ZM93.109 27.1401C92.899 27.1401 92.773 27.0281 92.773 26.8181C92.773 26.6921 92.801 26.5521 92.899 26.2441L94.201 21.7221C94.299 21.3441 94.355 21.0501 94.215 21.0501C94.047 21.0501 93.725 21.3861 92.885 22.4081L92.801 22.3381C93.865 20.7561 94.411 20.1401 94.943 20.1401C95.223 20.1401 95.349 20.3641 95.349 20.6721C95.349 20.9521 95.209 21.4841 95.083 21.8621L94.299 24.4801H94.341C95.349 22.3521 96.861 20.1401 97.995 20.1401C98.331 20.1401 98.527 20.3501 98.527 20.7001C98.527 20.9941 98.401 21.4701 98.289 21.8621L97.225 25.5581C97.113 25.9361 97.071 26.2301 97.211 26.2301C97.365 26.2301 97.701 25.8941 98.541 24.8721L98.625 24.9421C97.561 26.5241 97.015 27.1401 96.483 27.1401C96.189 27.1401 96.063 26.9161 96.063 26.6081C96.063 26.3561 96.217 25.7961 96.329 25.4181L97.379 21.8061C97.505 21.3721 97.547 21.0501 97.295 21.0501C96.581 21.0501 94.523 23.9901 93.725 26.5241C93.599 26.9161 93.375 27.1401 93.109 27.1401ZM100.586 27.1401C99.7597 27.1401 99.4097 26.5241 99.4097 25.5721C99.4097 23.3321 101.314 20.1401 103.358 20.1401C104.044 20.1401 104.492 20.5181 104.492 21.1621C104.492 21.5821 104.296 21.9181 103.96 21.9181C103.652 21.9181 103.526 21.7221 103.582 21.3581C103.694 20.6721 103.54 20.3921 103.12 20.3921C101.818 20.3921 100.376 23.5281 100.376 25.2081C100.376 25.8941 100.6 26.3141 101.104 26.3141C101.762 26.3141 102.686 25.6281 103.54 24.5781L103.638 24.6341C102.616 26.2021 101.594 27.1401 100.586 27.1401ZM105.887 27.1401C105.061 27.1401 104.711 26.5241 104.711 25.5581C104.711 23.3321 106.573 20.1401 108.617 20.1401C109.261 20.1401 109.863 20.4481 109.863 21.1481C109.863 22.2821 108.365 23.6261 105.929 23.7381C105.761 24.2841 105.677 24.8021 105.677 25.2221C105.677 25.9081 105.887 26.3141 106.391 26.3141C107.063 26.3141 108.057 25.6281 108.911 24.5781L109.009 24.6341C107.987 26.2021 106.895 27.1401 105.887 27.1401ZM105.985 23.5281C107.931 23.3881 109.009 22.1421 109.009 21.1201C109.009 20.7001 108.827 20.3921 108.407 20.3921C107.469 20.3921 106.475 22.0021 105.985 23.5281ZM108.328 30.6681C109.084 30.5841 109.322 30.5001 109.462 30.0241L111.954 21.3161C111.422 21.6101 110.918 21.9881 110.512 22.4081L110.428 22.3381C110.946 21.7081 111.52 21.2181 112.08 20.8681L112.43 19.6501C112.556 19.2021 113.172 18.9641 113.424 18.9641C113.494 18.9641 113.522 18.9921 113.522 19.0621C113.522 19.1601 113.424 19.5101 113.172 20.3361C113.578 20.2101 113.984 20.1401 114.362 20.1401C115.58 20.1401 116.042 20.8821 116.042 21.8761C116.042 23.9621 113.928 27.0841 111.744 27.0841C111.59 27.0841 111.394 27.0841 111.198 27.0701L110.386 29.9121C110.232 30.4441 110.596 30.5001 111.478 30.5281L111.45 30.6401L108.314 30.7801L108.328 30.6681ZM111.436 26.4681C111.436 26.7061 111.52 26.8741 111.786 26.8741C113.396 26.8741 115.09 23.9621 115.09 22.1421C115.09 21.3161 114.754 20.7141 113.858 20.7141C113.606 20.7141 113.326 20.7561 113.032 20.8541L111.548 25.8801C111.478 26.1041 111.436 26.3001 111.436 26.4681ZM117.436 27.1401C117.072 27.1401 116.904 26.9161 116.904 26.5521C116.904 26.3281 117.002 25.9361 117.086 25.6281L118.528 20.6861H117.408L117.534 20.2801H118.64L119.018 18.9921C119.144 18.5441 119.746 18.3061 119.998 18.3061C120.068 18.3061 120.096 18.3341 120.096 18.4041C120.096 18.5161 119.97 18.9221 119.704 19.8461L119.578 20.2801H121.412L121.202 20.6861H119.466L118.052 25.5301C117.94 25.9361 117.898 26.2301 118.15 26.2301C118.43 26.2301 119.074 25.6701 119.956 24.8721L120.04 24.9421C118.92 26.3561 118.066 27.1401 117.436 27.1401Z" fill="#E01E1E"/>
<path d="M20.11 27.3706L20.9398 24.8748C21.0892 24.4252 21.4765 24.0931 21.9467 24.0105C22.4851 23.9169 23.031 23.8857 23.5768 23.9188C23.918 23.9389 24.1577 24.2601 24.0784 24.5922L23.7022 26.1558C23.7022 26.9027 24.58 27.3082 25.1535 26.8256L30.6874 22.1699C31.1042 21.8194 31.1042 21.1807 30.6874 20.8302L25.1535 16.1745C24.58 15.6919 23.7022 16.0975 23.7022 16.8444L24.0784 18.4079C24.1577 18.7382 23.918 19.0612 23.5768 19.0814C23.031 19.1126 22.4851 19.0814 21.9467 18.9896C21.4765 18.9089 21.0911 18.5767 20.9398 18.1253L20.11 15.6295C19.9846 15.2515 19.6545 15.0001 19.2839 15.0001H13.8772C13.2705 15.0019 12.8464 15.6552 13.0529 16.2755L13.7831 19.4998C14.0819 20.8174 14.0819 22.1846 13.7831 23.5022L13.0529 26.7265C12.8464 27.3468 13.2705 28.0001 13.879 28.0001H19.2857C19.6564 28.0001 19.9865 27.7486 20.1119 27.3706H20.11Z" fill="#E01E1E"/>
<circle cx="21.5" cy="21.5001" r="21.2187" stroke="#FF0000" stroke-width="0.562596"/>
</svg>
